<mxfile host="app.diagrams.net" modified="2023-05-23T11:51:01.622Z" agent="Mozilla/5.0 (Windows NT 10.0; Win64; x64) AppleWebKit/537.36 (KHTML, like Gecko) Chrome/113.0.0.0 Safari/537.36" etag="-ZGYyqy4srg4JG2hqYmp" version="21.3.3" type="github">
  <diagram name="ReferralUp User flow" id="eh0RseNG44NjT0FidaXN">
    <mxGraphModel dx="1457" dy="334" grid="1" gridSize="10" guides="1" tooltips="1" connect="1" arrows="1" fold="1" page="1" pageScale="1" pageWidth="850" pageHeight="1100" math="0" shadow="0">
      <root>
        <mxCell id="0" />
        <mxCell id="1" parent="0" />
        <mxCell id="i6DVCcUgK_-vfjjnNJu1-1" value="Home page" style="rounded=0;whiteSpace=wrap;html=1;" vertex="1" parent="1">
          <mxGeometry x="355" y="90" width="120" height="60" as="geometry" />
        </mxCell>
        <mxCell id="i6DVCcUgK_-vfjjnNJu1-2" value="" style="endArrow=classic;html=1;rounded=0;exitX=0.425;exitY=1;exitDx=0;exitDy=0;exitPerimeter=0;" edge="1" parent="1" source="i6DVCcUgK_-vfjjnNJu1-1">
          <mxGeometry width="50" height="50" relative="1" as="geometry">
            <mxPoint x="400" y="280" as="sourcePoint" />
            <mxPoint x="406" y="250" as="targetPoint" />
          </mxGeometry>
        </mxCell>
        <mxCell id="i6DVCcUgK_-vfjjnNJu1-3" value="" style="endArrow=classic;html=1;rounded=0;" edge="1" parent="1">
          <mxGeometry width="50" height="50" relative="1" as="geometry">
            <mxPoint x="400" y="250" as="sourcePoint" />
            <mxPoint x="120" y="250" as="targetPoint" />
          </mxGeometry>
        </mxCell>
        <mxCell id="i6DVCcUgK_-vfjjnNJu1-4" value="" style="endArrow=classic;html=1;rounded=0;" edge="1" parent="1">
          <mxGeometry width="50" height="50" relative="1" as="geometry">
            <mxPoint x="400" y="250" as="sourcePoint" />
            <mxPoint x="690" y="250" as="targetPoint" />
          </mxGeometry>
        </mxCell>
        <mxCell id="i6DVCcUgK_-vfjjnNJu1-5" value="" style="endArrow=classic;html=1;rounded=0;" edge="1" parent="1">
          <mxGeometry width="50" height="50" relative="1" as="geometry">
            <mxPoint x="130" y="250" as="sourcePoint" />
            <mxPoint x="130" y="290" as="targetPoint" />
          </mxGeometry>
        </mxCell>
        <mxCell id="i6DVCcUgK_-vfjjnNJu1-6" value="" style="endArrow=classic;html=1;rounded=0;" edge="1" parent="1">
          <mxGeometry width="50" height="50" relative="1" as="geometry">
            <mxPoint x="689.5" y="250" as="sourcePoint" />
            <mxPoint x="689.5" y="290" as="targetPoint" />
          </mxGeometry>
        </mxCell>
        <mxCell id="i6DVCcUgK_-vfjjnNJu1-7" value="Sign in as Student" style="rounded=0;whiteSpace=wrap;html=1;" vertex="1" parent="1">
          <mxGeometry x="80" y="290" width="120" height="60" as="geometry" />
        </mxCell>
        <mxCell id="i6DVCcUgK_-vfjjnNJu1-8" value="Sign in as alumni" style="rounded=0;whiteSpace=wrap;html=1;" vertex="1" parent="1">
          <mxGeometry x="630" y="290" width="120" height="60" as="geometry" />
        </mxCell>
        <mxCell id="i6DVCcUgK_-vfjjnNJu1-9" value="" style="endArrow=classic;html=1;rounded=0;exitX=0.417;exitY=1;exitDx=0;exitDy=0;exitPerimeter=0;" edge="1" parent="1" source="i6DVCcUgK_-vfjjnNJu1-7">
          <mxGeometry width="50" height="50" relative="1" as="geometry">
            <mxPoint x="400" y="410" as="sourcePoint" />
            <mxPoint x="130" y="410" as="targetPoint" />
          </mxGeometry>
        </mxCell>
        <mxCell id="i6DVCcUgK_-vfjjnNJu1-11" value="" style="endArrow=classic;html=1;rounded=0;" edge="1" parent="1">
          <mxGeometry width="50" height="50" relative="1" as="geometry">
            <mxPoint x="130" y="410" as="sourcePoint" />
            <mxPoint x="20" y="450" as="targetPoint" />
          </mxGeometry>
        </mxCell>
        <mxCell id="i6DVCcUgK_-vfjjnNJu1-12" value="" style="endArrow=classic;html=1;rounded=0;" edge="1" parent="1">
          <mxGeometry width="50" height="50" relative="1" as="geometry">
            <mxPoint x="130" y="410" as="sourcePoint" />
            <mxPoint x="240" y="450" as="targetPoint" />
          </mxGeometry>
        </mxCell>
        <mxCell id="i6DVCcUgK_-vfjjnNJu1-13" value="Check for opportunities" style="rounded=0;whiteSpace=wrap;html=1;" vertex="1" parent="1">
          <mxGeometry x="-20" y="450" width="120" height="60" as="geometry" />
        </mxCell>
        <mxCell id="i6DVCcUgK_-vfjjnNJu1-14" value="Check for open works" style="rounded=0;whiteSpace=wrap;html=1;" vertex="1" parent="1">
          <mxGeometry x="220" y="450" width="120" height="60" as="geometry" />
        </mxCell>
        <mxCell id="i6DVCcUgK_-vfjjnNJu1-15" value="" style="endArrow=classic;html=1;rounded=0;exitX=0.425;exitY=1.017;exitDx=0;exitDy=0;exitPerimeter=0;" edge="1" parent="1" source="i6DVCcUgK_-vfjjnNJu1-13">
          <mxGeometry width="50" height="50" relative="1" as="geometry">
            <mxPoint x="180" y="540" as="sourcePoint" />
            <mxPoint x="30" y="580" as="targetPoint" />
          </mxGeometry>
        </mxCell>
        <mxCell id="i6DVCcUgK_-vfjjnNJu1-16" value="Display all opportunities posted by alumnis" style="rounded=0;whiteSpace=wrap;html=1;" vertex="1" parent="1">
          <mxGeometry x="-20" y="580" width="120" height="60" as="geometry" />
        </mxCell>
        <mxCell id="i6DVCcUgK_-vfjjnNJu1-17" value="" style="endArrow=classic;html=1;rounded=0;exitX=0.408;exitY=1.017;exitDx=0;exitDy=0;exitPerimeter=0;" edge="1" parent="1" source="i6DVCcUgK_-vfjjnNJu1-16">
          <mxGeometry width="50" height="50" relative="1" as="geometry">
            <mxPoint x="180" y="720" as="sourcePoint" />
            <mxPoint x="-70" y="680" as="targetPoint" />
          </mxGeometry>
        </mxCell>
        <mxCell id="i6DVCcUgK_-vfjjnNJu1-18" value="" style="endArrow=classic;html=1;rounded=0;" edge="1" parent="1">
          <mxGeometry width="50" height="50" relative="1" as="geometry">
            <mxPoint x="30" y="640" as="sourcePoint" />
            <mxPoint x="140" y="680" as="targetPoint" />
          </mxGeometry>
        </mxCell>
        <mxCell id="i6DVCcUgK_-vfjjnNJu1-19" value="Apply for opportunity" style="rounded=0;whiteSpace=wrap;html=1;" vertex="1" parent="1">
          <mxGeometry x="-120" y="680" width="120" height="60" as="geometry" />
        </mxCell>
        <mxCell id="i6DVCcUgK_-vfjjnNJu1-20" value="Request for referral" style="rounded=0;whiteSpace=wrap;html=1;" vertex="1" parent="1">
          <mxGeometry x="80" y="680" width="120" height="60" as="geometry" />
        </mxCell>
        <mxCell id="i6DVCcUgK_-vfjjnNJu1-22" value="" style="endArrow=classic;html=1;rounded=0;" edge="1" parent="1">
          <mxGeometry width="50" height="50" relative="1" as="geometry">
            <mxPoint x="-70" y="740" as="sourcePoint" />
            <mxPoint x="-70" y="810" as="targetPoint" />
          </mxGeometry>
        </mxCell>
        <mxCell id="i6DVCcUgK_-vfjjnNJu1-23" value="Fill the form with details and resume and exit" style="rounded=0;whiteSpace=wrap;html=1;" vertex="1" parent="1">
          <mxGeometry x="-120" y="810" width="120" height="60" as="geometry" />
        </mxCell>
        <mxCell id="i6DVCcUgK_-vfjjnNJu1-24" value="" style="endArrow=classic;html=1;rounded=0;exitX=0.5;exitY=1;exitDx=0;exitDy=0;" edge="1" parent="1" source="i6DVCcUgK_-vfjjnNJu1-20">
          <mxGeometry width="50" height="50" relative="1" as="geometry">
            <mxPoint x="180" y="720" as="sourcePoint" />
            <mxPoint x="140" y="810" as="targetPoint" />
          </mxGeometry>
        </mxCell>
        <mxCell id="i6DVCcUgK_-vfjjnNJu1-25" value="Alumni will post a level and only students with level &amp;gt;= provided level can ask for the referral" style="rounded=0;whiteSpace=wrap;html=1;" vertex="1" parent="1">
          <mxGeometry x="80" y="810" width="120" height="80" as="geometry" />
        </mxCell>
        <mxCell id="i6DVCcUgK_-vfjjnNJu1-26" value="" style="endArrow=classic;html=1;rounded=0;exitX=0.5;exitY=1;exitDx=0;exitDy=0;" edge="1" parent="1" source="i6DVCcUgK_-vfjjnNJu1-25">
          <mxGeometry width="50" height="50" relative="1" as="geometry">
            <mxPoint x="180" y="950" as="sourcePoint" />
            <mxPoint x="140" y="950" as="targetPoint" />
          </mxGeometry>
        </mxCell>
        <mxCell id="i6DVCcUgK_-vfjjnNJu1-27" value="Will open a chat window for restricted period of time" style="rounded=0;whiteSpace=wrap;html=1;" vertex="1" parent="1">
          <mxGeometry x="80" y="950" width="120" height="60" as="geometry" />
        </mxCell>
        <mxCell id="i6DVCcUgK_-vfjjnNJu1-28" value="" style="endArrow=classic;html=1;rounded=0;exitX=0.5;exitY=1;exitDx=0;exitDy=0;" edge="1" parent="1" source="i6DVCcUgK_-vfjjnNJu1-27" target="i6DVCcUgK_-vfjjnNJu1-29">
          <mxGeometry width="50" height="50" relative="1" as="geometry">
            <mxPoint x="130" y="1010" as="sourcePoint" />
            <mxPoint x="130" y="1070" as="targetPoint" />
          </mxGeometry>
        </mxCell>
        <mxCell id="i6DVCcUgK_-vfjjnNJu1-29" value="Student will send his/her resume and ask for referral" style="rounded=0;whiteSpace=wrap;html=1;" vertex="1" parent="1">
          <mxGeometry x="80" y="1060" width="120" height="60" as="geometry" />
        </mxCell>
        <mxCell id="i6DVCcUgK_-vfjjnNJu1-32" value="Every work has some level associated with it&lt;br&gt;and students will receive a level according to the rating of alumni" style="rounded=0;whiteSpace=wrap;html=1;" vertex="1" parent="1">
          <mxGeometry x="230" y="600" width="130" height="90" as="geometry" />
        </mxCell>
        <mxCell id="i6DVCcUgK_-vfjjnNJu1-33" value="" style="endArrow=classic;html=1;rounded=0;exitX=0.417;exitY=1.033;exitDx=0;exitDy=0;exitPerimeter=0;entryX=0.315;entryY=0.033;entryDx=0;entryDy=0;entryPerimeter=0;" edge="1" parent="1" source="i6DVCcUgK_-vfjjnNJu1-14" target="i6DVCcUgK_-vfjjnNJu1-32">
          <mxGeometry width="50" height="50" relative="1" as="geometry">
            <mxPoint x="330" y="700" as="sourcePoint" />
            <mxPoint x="380" y="650" as="targetPoint" />
          </mxGeometry>
        </mxCell>
        <mxCell id="i6DVCcUgK_-vfjjnNJu1-36" value="" style="endArrow=classic;html=1;rounded=0;" edge="1" parent="1" target="i6DVCcUgK_-vfjjnNJu1-37">
          <mxGeometry width="50" height="50" relative="1" as="geometry">
            <mxPoint x="140" y="410" as="sourcePoint" />
            <mxPoint x="470" y="460" as="targetPoint" />
          </mxGeometry>
        </mxCell>
        <mxCell id="i6DVCcUgK_-vfjjnNJu1-37" value="Submit your work" style="rounded=0;whiteSpace=wrap;html=1;" vertex="1" parent="1">
          <mxGeometry x="450" y="450" width="120" height="60" as="geometry" />
        </mxCell>
        <mxCell id="i6DVCcUgK_-vfjjnNJu1-38" value="" style="endArrow=classic;html=1;rounded=0;exitX=0.5;exitY=1;exitDx=0;exitDy=0;" edge="1" parent="1" source="i6DVCcUgK_-vfjjnNJu1-37" target="i6DVCcUgK_-vfjjnNJu1-39">
          <mxGeometry width="50" height="50" relative="1" as="geometry">
            <mxPoint x="330" y="550" as="sourcePoint" />
            <mxPoint x="510" y="610" as="targetPoint" />
          </mxGeometry>
        </mxCell>
        <mxCell id="i6DVCcUgK_-vfjjnNJu1-39" value="work completed with deadline?" style="rounded=0;whiteSpace=wrap;html=1;" vertex="1" parent="1">
          <mxGeometry x="450" y="580" width="120" height="60" as="geometry" />
        </mxCell>
        <mxCell id="i6DVCcUgK_-vfjjnNJu1-40" value="" style="endArrow=classic;html=1;rounded=0;exitX=0.5;exitY=1;exitDx=0;exitDy=0;" edge="1" parent="1" source="i6DVCcUgK_-vfjjnNJu1-39">
          <mxGeometry width="50" height="50" relative="1" as="geometry">
            <mxPoint x="330" y="650" as="sourcePoint" />
            <mxPoint x="510" y="710" as="targetPoint" />
          </mxGeometry>
        </mxCell>
        <mxCell id="i6DVCcUgK_-vfjjnNJu1-41" value="" style="endArrow=classic;html=1;rounded=0;" edge="1" parent="1">
          <mxGeometry width="50" height="50" relative="1" as="geometry">
            <mxPoint x="510" y="700" as="sourcePoint" />
            <mxPoint x="430" y="740" as="targetPoint" />
          </mxGeometry>
        </mxCell>
        <mxCell id="i6DVCcUgK_-vfjjnNJu1-42" value="" style="endArrow=classic;html=1;rounded=0;" edge="1" parent="1">
          <mxGeometry width="50" height="50" relative="1" as="geometry">
            <mxPoint x="510" y="700" as="sourcePoint" />
            <mxPoint x="590" y="740" as="targetPoint" />
          </mxGeometry>
        </mxCell>
        <mxCell id="i6DVCcUgK_-vfjjnNJu1-43" value="Work will be sent to the alumni and will show the status of work" style="rounded=0;whiteSpace=wrap;html=1;" vertex="1" parent="1">
          <mxGeometry x="360" y="740" width="120" height="60" as="geometry" />
        </mxCell>
        <mxCell id="i6DVCcUgK_-vfjjnNJu1-45" value="" style="endArrow=classic;html=1;rounded=0;exitX=0.5;exitY=1;exitDx=0;exitDy=0;" edge="1" parent="1" source="i6DVCcUgK_-vfjjnNJu1-43">
          <mxGeometry width="50" height="50" relative="1" as="geometry">
            <mxPoint x="330" y="830" as="sourcePoint" />
            <mxPoint x="420" y="870" as="targetPoint" />
          </mxGeometry>
        </mxCell>
        <mxCell id="i6DVCcUgK_-vfjjnNJu1-47" value="Pending/ Rated?" style="rounded=0;whiteSpace=wrap;html=1;" vertex="1" parent="1">
          <mxGeometry x="360" y="870" width="120" height="60" as="geometry" />
        </mxCell>
        <mxCell id="i6DVCcUgK_-vfjjnNJu1-48" value="User will be downrated" style="rounded=0;whiteSpace=wrap;html=1;" vertex="1" parent="1">
          <mxGeometry x="530" y="740" width="120" height="60" as="geometry" />
        </mxCell>
        <mxCell id="i6DVCcUgK_-vfjjnNJu1-49" value="" style="endArrow=classic;html=1;rounded=0;exitX=0.5;exitY=1;exitDx=0;exitDy=0;" edge="1" parent="1" source="i6DVCcUgK_-vfjjnNJu1-32" target="i6DVCcUgK_-vfjjnNJu1-50">
          <mxGeometry width="50" height="50" relative="1" as="geometry">
            <mxPoint x="330" y="830" as="sourcePoint" />
            <mxPoint x="295" y="800" as="targetPoint" />
          </mxGeometry>
        </mxCell>
        <mxCell id="i6DVCcUgK_-vfjjnNJu1-50" value="deadline over?" style="rounded=0;whiteSpace=wrap;html=1;" vertex="1" parent="1">
          <mxGeometry x="235" y="770" width="120" height="70" as="geometry" />
        </mxCell>
        <mxCell id="i6DVCcUgK_-vfjjnNJu1-51" value="" style="endArrow=classic;html=1;rounded=0;exitX=0.5;exitY=1;exitDx=0;exitDy=0;" edge="1" parent="1" source="i6DVCcUgK_-vfjjnNJu1-50" target="i6DVCcUgK_-vfjjnNJu1-52">
          <mxGeometry width="50" height="50" relative="1" as="geometry">
            <mxPoint x="330" y="830" as="sourcePoint" />
            <mxPoint x="295" y="920" as="targetPoint" />
          </mxGeometry>
        </mxCell>
        <mxCell id="i6DVCcUgK_-vfjjnNJu1-52" value="Work submitted?" style="rounded=0;whiteSpace=wrap;html=1;" vertex="1" parent="1">
          <mxGeometry x="235" y="900" width="120" height="60" as="geometry" />
        </mxCell>
        <mxCell id="i6DVCcUgK_-vfjjnNJu1-53" value="" style="endArrow=classic;html=1;rounded=0;exitX=0.5;exitY=1;exitDx=0;exitDy=0;" edge="1" parent="1" source="i6DVCcUgK_-vfjjnNJu1-52">
          <mxGeometry width="50" height="50" relative="1" as="geometry">
            <mxPoint x="330" y="900" as="sourcePoint" />
            <mxPoint x="220" y="1040" as="targetPoint" />
          </mxGeometry>
        </mxCell>
        <mxCell id="i6DVCcUgK_-vfjjnNJu1-54" value="" style="endArrow=classic;html=1;rounded=0;exitX=0.5;exitY=1;exitDx=0;exitDy=0;" edge="1" parent="1" source="i6DVCcUgK_-vfjjnNJu1-52">
          <mxGeometry width="50" height="50" relative="1" as="geometry">
            <mxPoint x="330" y="900" as="sourcePoint" />
            <mxPoint x="370" y="1040" as="targetPoint" />
          </mxGeometry>
        </mxCell>
        <mxCell id="i6DVCcUgK_-vfjjnNJu1-55" value="Further processed by alumni" style="rounded=0;whiteSpace=wrap;html=1;" vertex="1" parent="1">
          <mxGeometry x="210" y="1040" width="120" height="60" as="geometry" />
        </mxCell>
        <mxCell id="i6DVCcUgK_-vfjjnNJu1-56" value="User will be downrated" style="rounded=0;whiteSpace=wrap;html=1;" vertex="1" parent="1">
          <mxGeometry x="340" y="1040" width="120" height="60" as="geometry" />
        </mxCell>
        <mxCell id="i6DVCcUgK_-vfjjnNJu1-57" value="NO" style="text;html=1;strokeColor=none;fillColor=none;align=center;verticalAlign=middle;whiteSpace=wrap;rounded=0;" vertex="1" parent="1">
          <mxGeometry x="330" y="980" width="60" height="30" as="geometry" />
        </mxCell>
        <mxCell id="i6DVCcUgK_-vfjjnNJu1-58" value="YES" style="text;html=1;align=center;verticalAlign=middle;resizable=0;points=[];autosize=1;strokeColor=none;fillColor=none;" vertex="1" parent="1">
          <mxGeometry x="215" y="978" width="50" height="30" as="geometry" />
        </mxCell>
        <mxCell id="i6DVCcUgK_-vfjjnNJu1-59" value="YES" style="text;html=1;align=center;verticalAlign=middle;resizable=0;points=[];autosize=1;strokeColor=none;fillColor=none;" vertex="1" parent="1">
          <mxGeometry x="425" y="688" width="50" height="30" as="geometry" />
        </mxCell>
        <mxCell id="i6DVCcUgK_-vfjjnNJu1-60" value="NO" style="text;html=1;align=center;verticalAlign=middle;resizable=0;points=[];autosize=1;strokeColor=none;fillColor=none;" vertex="1" parent="1">
          <mxGeometry x="550" y="688" width="40" height="30" as="geometry" />
        </mxCell>
        <mxCell id="i6DVCcUgK_-vfjjnNJu1-61" value="" style="endArrow=classic;html=1;rounded=0;" edge="1" parent="1">
          <mxGeometry width="50" height="50" relative="1" as="geometry">
            <mxPoint x="680" y="350" as="sourcePoint" />
            <mxPoint x="680" y="440" as="targetPoint" />
          </mxGeometry>
        </mxCell>
        <mxCell id="i6DVCcUgK_-vfjjnNJu1-62" value="" style="endArrow=classic;html=1;rounded=0;" edge="1" parent="1">
          <mxGeometry width="50" height="50" relative="1" as="geometry">
            <mxPoint x="680" y="440" as="sourcePoint" />
            <mxPoint x="610" y="500" as="targetPoint" />
          </mxGeometry>
        </mxCell>
        <mxCell id="i6DVCcUgK_-vfjjnNJu1-63" value="" style="endArrow=classic;html=1;rounded=0;" edge="1" parent="1">
          <mxGeometry width="50" height="50" relative="1" as="geometry">
            <mxPoint x="680" y="440" as="sourcePoint" />
            <mxPoint x="780" y="500" as="targetPoint" />
          </mxGeometry>
        </mxCell>
        <mxCell id="i6DVCcUgK_-vfjjnNJu1-64" value="Post an opportunity" style="rounded=0;whiteSpace=wrap;html=1;" vertex="1" parent="1">
          <mxGeometry x="600" y="510" width="120" height="60" as="geometry" />
        </mxCell>
        <mxCell id="i6DVCcUgK_-vfjjnNJu1-65" value="Post a work" style="rounded=0;whiteSpace=wrap;html=1;" vertex="1" parent="1">
          <mxGeometry x="730" y="500" width="120" height="60" as="geometry" />
        </mxCell>
        <mxCell id="i6DVCcUgK_-vfjjnNJu1-66" value="" style="endArrow=classic;html=1;rounded=0;" edge="1" parent="1" target="i6DVCcUgK_-vfjjnNJu1-67">
          <mxGeometry width="50" height="50" relative="1" as="geometry">
            <mxPoint x="680" y="440" as="sourcePoint" />
            <mxPoint x="940" y="500" as="targetPoint" />
          </mxGeometry>
        </mxCell>
        <mxCell id="i6DVCcUgK_-vfjjnNJu1-67" value="Review Submissions" style="rounded=0;whiteSpace=wrap;html=1;" vertex="1" parent="1">
          <mxGeometry x="880" y="500" width="120" height="60" as="geometry" />
        </mxCell>
        <mxCell id="i6DVCcUgK_-vfjjnNJu1-70" value="" style="endArrow=classic;html=1;rounded=0;" edge="1" parent="1" target="i6DVCcUgK_-vfjjnNJu1-71">
          <mxGeometry width="50" height="50" relative="1" as="geometry">
            <mxPoint x="680" y="440" as="sourcePoint" />
            <mxPoint x="1120" y="510" as="targetPoint" />
          </mxGeometry>
        </mxCell>
        <mxCell id="i6DVCcUgK_-vfjjnNJu1-71" value="Review Referral Requests" style="rounded=0;whiteSpace=wrap;html=1;" vertex="1" parent="1">
          <mxGeometry x="1090" y="490" width="120" height="60" as="geometry" />
        </mxCell>
        <mxCell id="i6DVCcUgK_-vfjjnNJu1-72" value="" style="endArrow=classic;html=1;rounded=0;exitX=0.681;exitY=0.984;exitDx=0;exitDy=0;exitPerimeter=0;" edge="1" parent="1" source="i6DVCcUgK_-vfjjnNJu1-64" target="i6DVCcUgK_-vfjjnNJu1-73">
          <mxGeometry width="50" height="50" relative="1" as="geometry">
            <mxPoint x="650" y="610" as="sourcePoint" />
            <mxPoint x="630" y="640" as="targetPoint" />
          </mxGeometry>
        </mxCell>
        <mxCell id="i6DVCcUgK_-vfjjnNJu1-73" value="Create a post(No comments will be allowed on posts)" style="rounded=0;whiteSpace=wrap;html=1;" vertex="1" parent="1">
          <mxGeometry x="620" y="628" width="120" height="60" as="geometry" />
        </mxCell>
        <mxCell id="i6DVCcUgK_-vfjjnNJu1-74" value="" style="endArrow=classic;html=1;rounded=0;exitX=0.5;exitY=1;exitDx=0;exitDy=0;" edge="1" parent="1" source="i6DVCcUgK_-vfjjnNJu1-65">
          <mxGeometry width="50" height="50" relative="1" as="geometry">
            <mxPoint x="650" y="610" as="sourcePoint" />
            <mxPoint x="790" y="630" as="targetPoint" />
          </mxGeometry>
        </mxCell>
        <mxCell id="i6DVCcUgK_-vfjjnNJu1-75" value="Create a post for work&lt;br&gt;Details:&lt;br&gt;level of work&lt;br&gt;domain&lt;br&gt;Reference(Related codebase, snapshot,etc.)" style="rounded=0;whiteSpace=wrap;html=1;" vertex="1" parent="1">
          <mxGeometry x="750" y="628" width="130" height="100" as="geometry" />
        </mxCell>
        <mxCell id="i6DVCcUgK_-vfjjnNJu1-76" value="Check for the provided submissions and provide a rating and feedback to the student" style="rounded=0;whiteSpace=wrap;html=1;" vertex="1" parent="1">
          <mxGeometry x="890" y="650" width="120" height="83" as="geometry" />
        </mxCell>
        <mxCell id="i6DVCcUgK_-vfjjnNJu1-77" value="" style="endArrow=classic;html=1;rounded=0;exitX=0.5;exitY=1;exitDx=0;exitDy=0;" edge="1" parent="1" source="i6DVCcUgK_-vfjjnNJu1-67">
          <mxGeometry width="50" height="50" relative="1" as="geometry">
            <mxPoint x="650" y="610" as="sourcePoint" />
            <mxPoint x="940" y="650" as="targetPoint" />
          </mxGeometry>
        </mxCell>
        <mxCell id="i6DVCcUgK_-vfjjnNJu1-79" value="" style="endArrow=classic;html=1;rounded=0;exitX=0.333;exitY=1;exitDx=0;exitDy=0;exitPerimeter=0;" edge="1" parent="1" source="i6DVCcUgK_-vfjjnNJu1-71">
          <mxGeometry width="50" height="50" relative="1" as="geometry">
            <mxPoint x="1125" y="628" as="sourcePoint" />
            <mxPoint x="1130" y="640" as="targetPoint" />
          </mxGeometry>
        </mxCell>
        <mxCell id="i6DVCcUgK_-vfjjnNJu1-80" value="Alumni can text any person provided the resume and tell the further process" style="rounded=0;whiteSpace=wrap;html=1;" vertex="1" parent="1">
          <mxGeometry x="1090" y="640" width="120" height="60" as="geometry" />
        </mxCell>
        <mxCell id="i6DVCcUgK_-vfjjnNJu1-81" value="Issues:&lt;br&gt;1. How will it be verified that the person registering is an alumni?&lt;br&gt;2. More focus is given on works and deadline and becoming more and more like google classroom, like a teacher-student relationship&lt;br&gt;3. Some flow must be towards the post side&lt;br&gt;" style="whiteSpace=wrap;html=1;" vertex="1" parent="1">
          <mxGeometry x="40" y="1180" width="510" height="140" as="geometry" />
        </mxCell>
      </root>
    </mxGraphModel>
  </diagram>
</mxfile>
